<svg xmlns="http://www.w3.org/2000/svg" width="980" height="560" viewBox="0 0 980 560"><rect width="980" height="560" fill="#f8fafc"/><text x="90" y="38" font-family="Avenir Next, Avenir, Helvetica, Arial, sans-serif" font-size="26" font-weight="700" fill="#0f172a">Canary Stress: Scale and Removal Validation</text><text x="90" y="60" font-family="Avenir Next, Avenir, Helvetica, Arial, sans-serif" font-size="14" fill="#64748b">Task-level exact success rate</text><line x1="90" y1="440.0" x2="950" y2="440.0" stroke="#cbd5e1" stroke-width="1"/><text x="78" y="445.0" text-anchor="end" font-family="Avenir Next, Avenir, Helvetica, Arial, sans-serif" font-size="12" fill="#64748b">0.00</text><line x1="90" y1="366.0" x2="950" y2="366.0" stroke="#cbd5e1" stroke-width="1"/><text x="78" y="371.0" text-anchor="end" font-family="Avenir Next, Avenir, Helvetica, Arial, sans-serif" font-size="12" fill="#64748b">0.09</text><line x1="90" y1="292.0" x2="950" y2="292.0" stroke="#cbd5e1" stroke-width="1"/><text x="78" y="297.0" text-anchor="end" font-family="Avenir Next, Avenir, Helvetica, Arial, sans-serif" font-size="12" fill="#64748b">0.18</text><line x1="90" y1="218.0" x2="950" y2="218.0" stroke="#cbd5e1" stroke-width="1"/><text x="78" y="223.0" text-anchor="end" font-family="Avenir Next, Avenir, Helvetica, Arial, sans-serif" font-size="12" fill="#64748b">0.27</text><line x1="90" y1="144.0" x2="950" y2="144.0" stroke="#cbd5e1" stroke-width="1"/><text x="78" y="149.0" text-anchor="end" font-family="Avenir Next, Avenir, Helvetica, Arial, sans-serif" font-size="12" fill="#64748b">0.36</text><line x1="90" y1="70.0" x2="950" y2="70.0" stroke="#cbd5e1" stroke-width="1"/><text x="78" y="75.0" text-anchor="end" font-family="Avenir Next, Avenir, Helvetica, Arial, sans-serif" font-size="12" fill="#64748b">0.45</text><line x1="90" y1="440.0" x2="950" y2="440.0" stroke="#0f172a" stroke-width="1.5"/><rect x="158.0" y="138.5" width="32.0" height="301.5" rx="4" fill="#dc2626"/><text x="176.0" y="490" text-anchor="middle" font-family="Avenir Next, Avenir, Helvetica, Arial, sans-serif" font-size="13" fill="#0f172a">160M baseline</text><rect x="330.0" y="385.2" width="32.0" height="54.8" rx="4" fill="#dc2626"/><text x="348.0" y="490" text-anchor="middle" font-family="Avenir Next, Avenir, Helvetica, Arial, sans-serif" font-size="13" fill="#0f172a">160M high-attribution removal</text><rect x="502.0" y="357.8" width="32.0" height="82.2" rx="4" fill="#dc2626"/><text x="520.0" y="490" text-anchor="middle" font-family="Avenir Next, Avenir, Helvetica, Arial, sans-serif" font-size="13" fill="#0f172a">160M random removal</text><rect x="674.0" y="357.8" width="32.0" height="82.2" rx="4" fill="#dc2626"/><text x="692.0" y="490" text-anchor="middle" font-family="Avenir Next, Avenir, Helvetica, Arial, sans-serif" font-size="13" fill="#0f172a">410M seed1</text><rect x="846.0" y="111.1" width="32.0" height="328.9" rx="4" fill="#dc2626"/><text x="864.0" y="490" text-anchor="middle" font-family="Avenir Next, Avenir, Helvetica, Arial, sans-serif" font-size="13" fill="#0f172a">410M strong</text><rect x="710" y="18" width="12" height="12" rx="2" fill="#dc2626"/><text x="728" y="28" font-family="Avenir Next, Avenir, Helvetica, Arial, sans-serif" font-size="13" fill="#0f172a">Low-cue exact success rate</text></svg>