<svg xmlns="http://www.w3.org/2000/svg" width="980" height="560" viewBox="0 0 980 560"><rect width="980" height="560" fill="#f8fafc"/><text x="90" y="38" font-family="Avenir Next, Avenir, Helvetica, Arial, sans-serif" font-size="26" font-weight="700" fill="#0f172a">Canary Mechanistic Probe AUC By Layer</text><text x="90" y="60" font-family="Avenir Next, Avenir, Helvetica, Arial, sans-serif" font-size="14" fill="#64748b">Probe AUC at final prompt token</text><line x1="90" y1="440.0" x2="950" y2="440.0" stroke="#cbd5e1" stroke-width="1"/><text x="78" y="445.0" text-anchor="end" font-family="Avenir Next, Avenir, Helvetica, Arial, sans-serif" font-size="12" fill="#64748b">0.00</text><line x1="90" y1="366.0" x2="950" y2="366.0" stroke="#cbd5e1" stroke-width="1"/><text x="78" y="371.0" text-anchor="end" font-family="Avenir Next, Avenir, Helvetica, Arial, sans-serif" font-size="12" fill="#64748b">0.20</text><line x1="90" y1="292.0" x2="950" y2="292.0" stroke="#cbd5e1" stroke-width="1"/><text x="78" y="297.0" text-anchor="end" font-family="Avenir Next, Avenir, Helvetica, Arial, sans-serif" font-size="12" fill="#64748b">0.40</text><line x1="90" y1="218.0" x2="950" y2="218.0" stroke="#cbd5e1" stroke-width="1"/><text x="78" y="223.0" text-anchor="end" font-family="Avenir Next, Avenir, Helvetica, Arial, sans-serif" font-size="12" fill="#64748b">0.60</text><line x1="90" y1="144.0" x2="950" y2="144.0" stroke="#cbd5e1" stroke-width="1"/><text x="78" y="149.0" text-anchor="end" font-family="Avenir Next, Avenir, Helvetica, Arial, sans-serif" font-size="12" fill="#64748b">0.80</text><line x1="90" y1="70.0" x2="950" y2="70.0" stroke="#cbd5e1" stroke-width="1"/><text x="78" y="75.0" text-anchor="end" font-family="Avenir Next, Avenir, Helvetica, Arial, sans-serif" font-size="12" fill="#64748b">1.00</text><line x1="90.0" y1="70" x2="90.0" y2="440" stroke="#cbd5e1" stroke-width="1"/><text x="90.0" y="490" text-anchor="middle" font-family="Avenir Next, Avenir, Helvetica, Arial, sans-serif" font-size="13" fill="#0f172a">0</text><line x1="168.2" y1="70" x2="168.2" y2="440" stroke="#cbd5e1" stroke-width="1"/><text x="168.2" y="490" text-anchor="middle" font-family="Avenir Next, Avenir, Helvetica, Arial, sans-serif" font-size="13" fill="#0f172a">1</text><line x1="246.4" y1="70" x2="246.4" y2="440" stroke="#cbd5e1" stroke-width="1"/><text x="246.4" y="490" text-anchor="middle" font-family="Avenir Next, Avenir, Helvetica, Arial, sans-serif" font-size="13" fill="#0f172a">2</text><line x1="324.5" y1="70" x2="324.5" y2="440" stroke="#cbd5e1" stroke-width="1"/><text x="324.5" y="490" text-anchor="middle" font-family="Avenir Next, Avenir, Helvetica, Arial, sans-serif" font-size="13" fill="#0f172a">3</text><line x1="402.7" y1="70" x2="402.7" y2="440" stroke="#cbd5e1" stroke-width="1"/><text x="402.7" y="490" text-anchor="middle" font-family="Avenir Next, Avenir, Helvetica, Arial, sans-serif" font-size="13" fill="#0f172a">4</text><line x1="480.9" y1="70" x2="480.9" y2="440" stroke="#cbd5e1" stroke-width="1"/><text x="480.9" y="490" text-anchor="middle" font-family="Avenir Next, Avenir, Helvetica, Arial, sans-serif" font-size="13" fill="#0f172a">5</text><line x1="559.1" y1="70" x2="559.1" y2="440" stroke="#cbd5e1" stroke-width="1"/><text x="559.1" y="490" text-anchor="middle" font-family="Avenir Next, Avenir, Helvetica, Arial, sans-serif" font-size="13" fill="#0f172a">6</text><line x1="637.3" y1="70" x2="637.3" y2="440" stroke="#cbd5e1" stroke-width="1"/><text x="637.3" y="490" text-anchor="middle" font-family="Avenir Next, Avenir, Helvetica, Arial, sans-serif" font-size="13" fill="#0f172a">7</text><line x1="715.5" y1="70" x2="715.5" y2="440" stroke="#cbd5e1" stroke-width="1"/><text x="715.5" y="490" text-anchor="middle" font-family="Avenir Next, Avenir, Helvetica, Arial, sans-serif" font-size="13" fill="#0f172a">8</text><line x1="793.6" y1="70" x2="793.6" y2="440" stroke="#cbd5e1" stroke-width="1"/><text x="793.6" y="490" text-anchor="middle" font-family="Avenir Next, Avenir, Helvetica, Arial, sans-serif" font-size="13" fill="#0f172a">9</text><line x1="871.8" y1="70" x2="871.8" y2="440" stroke="#cbd5e1" stroke-width="1"/><text x="871.8" y="490" text-anchor="middle" font-family="Avenir Next, Avenir, Helvetica, Arial, sans-serif" font-size="13" fill="#0f172a">10</text><line x1="950.0" y1="70" x2="950.0" y2="440" stroke="#cbd5e1" stroke-width="1"/><text x="950.0" y="490" text-anchor="middle" font-family="Avenir Next, Avenir, Helvetica, Arial, sans-serif" font-size="13" fill="#0f172a">11</text><polyline fill="none" stroke="#1d4ed8" stroke-width="4" stroke-linecap="round" stroke-linejoin="round" points="90.0,70.0 168.2,174.0 246.4,316.7 324.5,378.3 402.7,440.0 480.9,316.7 559.1,255.0 637.3,440.0 715.5,378.3 793.6,378.3 871.8,440.0 950.0,440.0"/><circle cx="90.0" cy="70.0" r="5" fill="#1d4ed8"/><circle cx="168.2" cy="174.0" r="5" fill="#1d4ed8"/><circle cx="246.4" cy="316.7" r="5" fill="#1d4ed8"/><circle cx="324.5" cy="378.3" r="5" fill="#1d4ed8"/><circle cx="402.7" cy="440.0" r="5" fill="#1d4ed8"/><circle cx="480.9" cy="316.7" r="5" fill="#1d4ed8"/><circle cx="559.1" cy="255.0" r="5" fill="#1d4ed8"/><circle cx="637.3" cy="440.0" r="5" fill="#1d4ed8"/><circle cx="715.5" cy="378.3" r="5" fill="#1d4ed8"/><circle cx="793.6" cy="378.3" r="5" fill="#1d4ed8"/><circle cx="871.8" cy="440.0" r="5" fill="#1d4ed8"/><circle cx="950.0" cy="440.0" r="5" fill="#1d4ed8"/><line x1="740" y1="24" x2="754" y2="24" stroke="#1d4ed8" stroke-width="4"/><text x="760" y="28" font-family="Avenir Next, Avenir, Helvetica, Arial, sans-serif" font-size="13" fill="#0f172a">success_low_vs_fail_low</text></svg>