<svg xmlns="http://www.w3.org/2000/svg" width="980" height="560" viewBox="0 0 980 560"><rect width="980" height="560" fill="#f8fafc"/><text x="90" y="38" font-family="Avenir Next, Avenir, Helvetica, Arial, sans-serif" font-size="26" font-weight="700" fill="#0f172a">Deep Event-Only Audits: Mean Max Target Logprob</text><text x="90" y="60" font-family="Avenir Next, Avenir, Helvetica, Arial, sans-serif" font-size="14" fill="#64748b">Higher is stronger target likelihood</text><line x1="90" y1="440.0" x2="950" y2="440.0" stroke="#cbd5e1" stroke-width="1"/><text x="78" y="445.0" text-anchor="end" font-family="Avenir Next, Avenir, Helvetica, Arial, sans-serif" font-size="12" fill="#64748b">-2.90</text><line x1="90" y1="366.0" x2="950" y2="366.0" stroke="#cbd5e1" stroke-width="1"/><text x="78" y="371.0" text-anchor="end" font-family="Avenir Next, Avenir, Helvetica, Arial, sans-serif" font-size="12" fill="#64748b">-2.74</text><line x1="90" y1="292.0" x2="950" y2="292.0" stroke="#cbd5e1" stroke-width="1"/><text x="78" y="297.0" text-anchor="end" font-family="Avenir Next, Avenir, Helvetica, Arial, sans-serif" font-size="12" fill="#64748b">-2.58</text><line x1="90" y1="218.0" x2="950" y2="218.0" stroke="#cbd5e1" stroke-width="1"/><text x="78" y="223.0" text-anchor="end" font-family="Avenir Next, Avenir, Helvetica, Arial, sans-serif" font-size="12" fill="#64748b">-2.42</text><line x1="90" y1="144.0" x2="950" y2="144.0" stroke="#cbd5e1" stroke-width="1"/><text x="78" y="149.0" text-anchor="end" font-family="Avenir Next, Avenir, Helvetica, Arial, sans-serif" font-size="12" fill="#64748b">-2.26</text><line x1="90" y1="70.0" x2="950" y2="70.0" stroke="#cbd5e1" stroke-width="1"/><text x="78" y="75.0" text-anchor="end" font-family="Avenir Next, Avenir, Helvetica, Arial, sans-serif" font-size="12" fill="#64748b">-2.10</text><line x1="90.0" y1="70" x2="90.0" y2="440" stroke="#cbd5e1" stroke-width="1"/><text x="90.0" y="490" text-anchor="middle" font-family="Avenir Next, Avenir, Helvetica, Arial, sans-serif" font-size="13" fill="#0f172a">C2 event</text><line x1="520.0" y1="70" x2="520.0" y2="440" stroke="#cbd5e1" stroke-width="1"/><text x="520.0" y="490" text-anchor="middle" font-family="Avenir Next, Avenir, Helvetica, Arial, sans-serif" font-size="13" fill="#0f172a">C3 event</text><line x1="950.0" y1="70" x2="950.0" y2="440" stroke="#cbd5e1" stroke-width="1"/><text x="950.0" y="490" text-anchor="middle" font-family="Avenir Next, Avenir, Helvetica, Arial, sans-serif" font-size="13" fill="#0f172a">C3 event-only</text><polyline fill="none" stroke="#0f766e" stroke-width="4" stroke-linecap="round" stroke-linejoin="round" points="90.0,345.6 520.0,346.0 950.0,128.4"/><circle cx="90.0" cy="345.6" r="5" fill="#0f766e"/><circle cx="520.0" cy="346.0" r="5" fill="#0f766e"/><circle cx="950.0" cy="128.4" r="5" fill="#0f766e"/><polyline fill="none" stroke="#b45309" stroke-width="4" stroke-linecap="round" stroke-linejoin="round" points="90.0,390.0 520.0,396.2 950.0,171.4"/><circle cx="90.0" cy="390.0" r="5" fill="#b45309"/><circle cx="520.0" cy="396.2" r="5" fill="#b45309"/><circle cx="950.0" cy="171.4" r="5" fill="#b45309"/><line x1="740" y1="24" x2="754" y2="24" stroke="#0f766e" stroke-width="4"/><text x="760" y="28" font-family="Avenir Next, Avenir, Helvetica, Arial, sans-serif" font-size="13" fill="#0f172a">Member</text><line x1="740" y1="46" x2="754" y2="46" stroke="#b45309" stroke-width="4"/><text x="760" y="50" font-family="Avenir Next, Avenir, Helvetica, Arial, sans-serif" font-size="13" fill="#0f172a">Nonmember</text></svg>