<svg xmlns="http://www.w3.org/2000/svg" width="980" height="560" viewBox="0 0 980 560"><rect width="980" height="560" fill="#f8fafc"/><text x="90" y="38" font-family="Avenir Next, Avenir, Helvetica, Arial, sans-serif" font-size="26" font-weight="700" fill="#0f172a">Paperlite 410M Low-Cue Mean Target Logprob</text><text x="90" y="60" font-family="Avenir Next, Avenir, Helvetica, Arial, sans-serif" font-size="14" fill="#64748b">Higher is stronger target likelihood</text><line x1="90" y1="440.0" x2="950" y2="440.0" stroke="#cbd5e1" stroke-width="1"/><text x="78" y="445.0" text-anchor="end" font-family="Avenir Next, Avenir, Helvetica, Arial, sans-serif" font-size="12" fill="#64748b">-3.90</text><line x1="90" y1="366.0" x2="950" y2="366.0" stroke="#cbd5e1" stroke-width="1"/><text x="78" y="371.0" text-anchor="end" font-family="Avenir Next, Avenir, Helvetica, Arial, sans-serif" font-size="12" fill="#64748b">-3.66</text><line x1="90" y1="292.0" x2="950" y2="292.0" stroke="#cbd5e1" stroke-width="1"/><text x="78" y="297.0" text-anchor="end" font-family="Avenir Next, Avenir, Helvetica, Arial, sans-serif" font-size="12" fill="#64748b">-3.42</text><line x1="90" y1="218.0" x2="950" y2="218.0" stroke="#cbd5e1" stroke-width="1"/><text x="78" y="223.0" text-anchor="end" font-family="Avenir Next, Avenir, Helvetica, Arial, sans-serif" font-size="12" fill="#64748b">-3.18</text><line x1="90" y1="144.0" x2="950" y2="144.0" stroke="#cbd5e1" stroke-width="1"/><text x="78" y="149.0" text-anchor="end" font-family="Avenir Next, Avenir, Helvetica, Arial, sans-serif" font-size="12" fill="#64748b">-2.94</text><line x1="90" y1="70.0" x2="950" y2="70.0" stroke="#cbd5e1" stroke-width="1"/><text x="78" y="75.0" text-anchor="end" font-family="Avenir Next, Avenir, Helvetica, Arial, sans-serif" font-size="12" fill="#64748b">-2.70</text><line x1="90.0" y1="70" x2="90.0" y2="440" stroke="#cbd5e1" stroke-width="1"/><text x="90.0" y="490" text-anchor="middle" font-family="Avenir Next, Avenir, Helvetica, Arial, sans-serif" font-size="13" fill="#0f172a">C0</text><line x1="305.0" y1="70" x2="305.0" y2="440" stroke="#cbd5e1" stroke-width="1"/><text x="305.0" y="490" text-anchor="middle" font-family="Avenir Next, Avenir, Helvetica, Arial, sans-serif" font-size="13" fill="#0f172a">C1</text><line x1="520.0" y1="70" x2="520.0" y2="440" stroke="#cbd5e1" stroke-width="1"/><text x="520.0" y="490" text-anchor="middle" font-family="Avenir Next, Avenir, Helvetica, Arial, sans-serif" font-size="13" fill="#0f172a">C2</text><line x1="735.0" y1="70" x2="735.0" y2="440" stroke="#cbd5e1" stroke-width="1"/><text x="735.0" y="490" text-anchor="middle" font-family="Avenir Next, Avenir, Helvetica, Arial, sans-serif" font-size="13" fill="#0f172a">C3</text><line x1="950.0" y1="70" x2="950.0" y2="440" stroke="#cbd5e1" stroke-width="1"/><text x="950.0" y="490" text-anchor="middle" font-family="Avenir Next, Avenir, Helvetica, Arial, sans-serif" font-size="13" fill="#0f172a">C4</text><polyline fill="none" stroke="#0f766e" stroke-width="4" stroke-linecap="round" stroke-linejoin="round" points="90.0,419.7 305.0,213.5 520.0,111.9 735.0,124.6 950.0,311.3"/><circle cx="90.0" cy="419.7" r="5" fill="#0f766e"/><circle cx="305.0" cy="213.5" r="5" fill="#0f766e"/><circle cx="520.0" cy="111.9" r="5" fill="#0f766e"/><circle cx="735.0" cy="124.6" r="5" fill="#0f766e"/><circle cx="950.0" cy="311.3" r="5" fill="#0f766e"/><polyline fill="none" stroke="#b45309" stroke-width="4" stroke-linecap="round" stroke-linejoin="round" points="90.0,399.2 305.0,204.0 520.0,115.2 735.0,131.1 950.0,306.7"/><circle cx="90.0" cy="399.2" r="5" fill="#b45309"/><circle cx="305.0" cy="204.0" r="5" fill="#b45309"/><circle cx="520.0" cy="115.2" r="5" fill="#b45309"/><circle cx="735.0" cy="131.1" r="5" fill="#b45309"/><circle cx="950.0" cy="306.7" r="5" fill="#b45309"/><line x1="740" y1="24" x2="754" y2="24" stroke="#0f766e" stroke-width="4"/><text x="760" y="28" font-family="Avenir Next, Avenir, Helvetica, Arial, sans-serif" font-size="13" fill="#0f172a">Member</text><line x1="740" y1="46" x2="754" y2="46" stroke="#b45309" stroke-width="4"/><text x="760" y="50" font-family="Avenir Next, Avenir, Helvetica, Arial, sans-serif" font-size="13" fill="#0f172a">Nonmember</text></svg>