<svg xmlns="http://www.w3.org/2000/svg" width="980" height="560" viewBox="0 0 980 560"><rect width="980" height="560" fill="#f8fafc"/><text x="90" y="38" font-family="Avenir Next, Avenir, Helvetica, Arial, sans-serif" font-size="26" font-weight="700" fill="#0f172a">Paperlite 410M Extraction By Cue and Condition</text><text x="90" y="60" font-family="Avenir Next, Avenir, Helvetica, Arial, sans-serif" font-size="14" fill="#64748b">Extraction rate</text><line x1="90" y1="440.0" x2="950" y2="440.0" stroke="#cbd5e1" stroke-width="1"/><text x="78" y="445.0" text-anchor="end" font-family="Avenir Next, Avenir, Helvetica, Arial, sans-serif" font-size="12" fill="#64748b">0.00</text><line x1="90" y1="366.0" x2="950" y2="366.0" stroke="#cbd5e1" stroke-width="1"/><text x="78" y="371.0" text-anchor="end" font-family="Avenir Next, Avenir, Helvetica, Arial, sans-serif" font-size="12" fill="#64748b">0.04</text><line x1="90" y1="292.0" x2="950" y2="292.0" stroke="#cbd5e1" stroke-width="1"/><text x="78" y="297.0" text-anchor="end" font-family="Avenir Next, Avenir, Helvetica, Arial, sans-serif" font-size="12" fill="#64748b">0.08</text><line x1="90" y1="218.0" x2="950" y2="218.0" stroke="#cbd5e1" stroke-width="1"/><text x="78" y="223.0" text-anchor="end" font-family="Avenir Next, Avenir, Helvetica, Arial, sans-serif" font-size="12" fill="#64748b">0.12</text><line x1="90" y1="144.0" x2="950" y2="144.0" stroke="#cbd5e1" stroke-width="1"/><text x="78" y="149.0" text-anchor="end" font-family="Avenir Next, Avenir, Helvetica, Arial, sans-serif" font-size="12" fill="#64748b">0.16</text><line x1="90" y1="70.0" x2="950" y2="70.0" stroke="#cbd5e1" stroke-width="1"/><text x="78" y="75.0" text-anchor="end" font-family="Avenir Next, Avenir, Helvetica, Arial, sans-serif" font-size="12" fill="#64748b">0.20</text><line x1="90" y1="440.0" x2="950" y2="440.0" stroke="#0f172a" stroke-width="1.5"/><rect x="115.8" y="131.6" width="26.1" height="308.4" rx="4" fill="#0f766e"/><rect x="145.9" y="131.6" width="26.1" height="308.4" rx="4" fill="#b45309"/><rect x="176.0" y="440.0" width="26.1" height="1.0" rx="4" fill="#1d4ed8"/><rect x="206.1" y="440.0" width="26.1" height="1.0" rx="4" fill="#7c3aed"/><text x="176.0" y="490" text-anchor="middle" font-family="Avenir Next, Avenir, Helvetica, Arial, sans-serif" font-size="13" fill="#0f172a">C0</text><rect x="287.8" y="378.4" width="26.1" height="61.6" rx="4" fill="#0f766e"/><rect x="317.9" y="255.0" width="26.1" height="185.0" rx="4" fill="#b45309"/><rect x="348.0" y="440.0" width="26.1" height="1.0" rx="4" fill="#1d4ed8"/><rect x="378.1" y="440.0" width="26.1" height="1.0" rx="4" fill="#7c3aed"/><text x="348.0" y="490" text-anchor="middle" font-family="Avenir Next, Avenir, Helvetica, Arial, sans-serif" font-size="13" fill="#0f172a">C1</text><rect x="459.8" y="347.5" width="26.1" height="92.5" rx="4" fill="#0f766e"/><rect x="489.9" y="378.4" width="26.1" height="61.6" rx="4" fill="#b45309"/><rect x="520.0" y="440.0" width="26.1" height="1.0" rx="4" fill="#1d4ed8"/><rect x="550.1" y="440.0" width="26.1" height="1.0" rx="4" fill="#7c3aed"/><text x="520.0" y="490" text-anchor="middle" font-family="Avenir Next, Avenir, Helvetica, Arial, sans-serif" font-size="13" fill="#0f172a">C2</text><rect x="631.8" y="285.9" width="26.1" height="154.1" rx="4" fill="#0f766e"/><rect x="661.9" y="255.0" width="26.1" height="185.0" rx="4" fill="#b45309"/><rect x="692.0" y="440.0" width="26.1" height="1.0" rx="4" fill="#1d4ed8"/><rect x="722.1" y="440.0" width="26.1" height="1.0" rx="4" fill="#7c3aed"/><text x="692.0" y="490" text-anchor="middle" font-family="Avenir Next, Avenir, Helvetica, Arial, sans-serif" font-size="13" fill="#0f172a">C3</text><rect x="803.8" y="347.5" width="26.1" height="92.5" rx="4" fill="#0f766e"/><rect x="833.9" y="378.4" width="26.1" height="61.6" rx="4" fill="#b45309"/><rect x="864.0" y="440.0" width="26.1" height="1.0" rx="4" fill="#1d4ed8"/><rect x="894.1" y="440.0" width="26.1" height="1.0" rx="4" fill="#7c3aed"/><text x="864.0" y="490" text-anchor="middle" font-family="Avenir Next, Avenir, Helvetica, Arial, sans-serif" font-size="13" fill="#0f172a">C4</text><rect x="710" y="18" width="12" height="12" rx="2" fill="#0f766e"/><text x="728" y="28" font-family="Avenir Next, Avenir, Helvetica, Arial, sans-serif" font-size="13" fill="#0f172a">High-cue member extraction</text><rect x="710" y="40" width="12" height="12" rx="2" fill="#b45309"/><text x="728" y="50" font-family="Avenir Next, Avenir, Helvetica, Arial, sans-serif" font-size="13" fill="#0f172a">High-cue nonmember extraction</text><rect x="710" y="62" width="12" height="12" rx="2" fill="#1d4ed8"/><text x="728" y="72" font-family="Avenir Next, Avenir, Helvetica, Arial, sans-serif" font-size="13" fill="#0f172a">Low-cue member extraction</text><rect x="710" y="84" width="12" height="12" rx="2" fill="#7c3aed"/><text x="728" y="94" font-family="Avenir Next, Avenir, Helvetica, Arial, sans-serif" font-size="13" fill="#0f172a">Low-cue nonmember extraction</text></svg>