<svg xmlns="http://www.w3.org/2000/svg" width="1200" height="540" viewBox="0 0 1200 540"><rect width="1200" height="540" fill="#f8fafc"/><text x="40" y="42" font-family="Avenir Next, Avenir, Helvetica, Arial, sans-serif" font-size="28" font-weight="700" fill="#0f172a">M-CRATE Pipeline</text><text x="40" y="66" font-family="Avenir Next, Avenir, Helvetica, Arial, sans-serif" font-size="14" fill="#64748b">Synthetic benchmark, cue-controlled auditing, mechanistic localization, provenance, and validation.</text><rect x="40" y="110" width="220" height="92" rx="18" fill="white" stroke="#1d4ed8" stroke-width="3"/><text x="58" y="138" font-family="Avenir Next, Avenir, Helvetica, Arial, sans-serif" font-size="18" font-weight="700" fill="#0f172a">1. Synthetic Records</text><text x="58" y="162" font-family="Avenir Next, Avenir, Helvetica, Arial, sans-serif" font-size="13" fill="#64748b">Identity, account, event, and canary records with exact/fuzzy membership ground truth.</text><rect x="310" y="110" width="220" height="92" rx="18" fill="white" stroke="#7c3aed" stroke-width="3"/><text x="328" y="138" font-family="Avenir Next, Avenir, Helvetica, Arial, sans-serif" font-size="18" font-weight="700" fill="#0f172a">2. Conditioned Corpora</text><text x="328" y="162" font-family="Avenir Next, Avenir, Helvetica, Arial, sans-serif" font-size="13" fill="#64748b">C0-C4 and C5 corpora with clean, exact-duplicate, fuzzy, and redacted variants.</text><rect x="580" y="110" width="220" height="92" rx="18" fill="white" stroke="#0f766e" stroke-width="3"/><text x="598" y="138" font-family="Avenir Next, Avenir, Helvetica, Arial, sans-serif" font-size="18" font-weight="700" fill="#0f172a">3. Model Training</text><text x="598" y="162" font-family="Avenir Next, Avenir, Helvetica, Arial, sans-serif" font-size="13" fill="#64748b">Real HF fine-tunes on Pythia checkpoints with tracked validation metrics.</text><rect x="850" y="110" width="300" height="92" rx="18" fill="white" stroke="#dc2626" stroke-width="3"/><text x="868" y="138" font-family="Avenir Next, Avenir, Helvetica, Arial, sans-serif" font-size="18" font-weight="700" fill="#0f172a">4. Cue-Controlled Audit</text><text x="868" y="162" font-family="Avenir Next, Avenir, Helvetica, Arial, sans-serif" font-size="13" fill="#64748b">High / medium / low / no-cue prompts, scored generations, and member-vs-nonmember comparisons.</text><rect x="120" y="310" width="260" height="92" rx="18" fill="white" stroke="#1d4ed8" stroke-width="3"/><text x="138" y="338" font-family="Avenir Next, Avenir, Helvetica, Arial, sans-serif" font-size="18" font-weight="700" fill="#0f172a">5. Mechanistic Analysis</text><text x="138" y="362" font-family="Avenir Next, Avenir, Helvetica, Arial, sans-serif" font-size="13" fill="#64748b">Activation caches, probes, patching, ablation, residual directions, and logit attribution.</text><rect x="470" y="310" width="260" height="92" rx="18" fill="white" stroke="#7c3aed" stroke-width="3"/><text x="488" y="338" font-family="Avenir Next, Avenir, Helvetica, Arial, sans-serif" font-size="18" font-weight="700" fill="#0f172a">6. Provenance</text><text x="488" y="362" font-family="Avenir Next, Avenir, Helvetica, Arial, sans-serif" font-size="13" fill="#64748b">Gradient-similarity attribution over restricted parameter subsets and candidate pools.</text><rect x="820" y="310" width="280" height="92" rx="18" fill="white" stroke="#0f766e" stroke-width="3"/><text x="838" y="338" font-family="Avenir Next, Avenir, Helvetica, Arial, sans-serif" font-size="18" font-weight="700" fill="#0f172a">7. Causal Validation</text><text x="838" y="362" font-family="Avenir Next, Avenir, Helvetica, Arial, sans-serif" font-size="13" fill="#64748b">High-attribution removal versus random removal, plus scale-up reruns and plots.</text><line x1="260" y1="156" x2="310" y2="156" stroke="#64748b" stroke-width="4" stroke-linecap="round"/><polygon points="310.0,156.0 298.0,162.0 298.0,150.0" fill="#64748b"/><line x1="530" y1="156" x2="580" y2="156" stroke="#64748b" stroke-width="4" stroke-linecap="round"/><polygon points="580.0,156.0 568.0,162.0 568.0,150.0" fill="#64748b"/><line x1="800" y1="156" x2="850" y2="156" stroke="#64748b" stroke-width="4" stroke-linecap="round"/><polygon points="850.0,156.0 838.0,162.0 838.0,150.0" fill="#64748b"/><line x1="980" y1="202" x2="980" y2="310" stroke="#64748b" stroke-width="4" stroke-linecap="round"/><polygon points="980.0,310.0 974.0,298.0 986.0,298.0" fill="#64748b"/><line x1="730" y1="356" x2="820" y2="356" stroke="#64748b" stroke-width="4" stroke-linecap="round"/><polygon points="820.0,356.0 808.0,362.0 808.0,350.0" fill="#64748b"/><line x1="380" y1="356" x2="470" y2="356" stroke="#64748b" stroke-width="4" stroke-linecap="round"/><polygon points="470.0,356.0 458.0,362.0 458.0,350.0" fill="#64748b"/></svg>